<?xml version="1.0" encoding="utf-8"?>
<!-- Generator: Adobe Illustrator 26.0.2, SVG Export Plug-In . SVG Version: 6.00 Build 0)  -->
<svg version="1.1" xmlns="http://www.w3.org/2000/svg" xmlns:xlink="http://www.w3.org/1999/xlink" x="0px" y="0px"
	 viewBox="0 0 235.1 60.04" style="enable-background:new 0 0 235.1 60.04;" xml:space="preserve">
<style type="text/css">
	.st0{display:none;}
	.st1{display:inline;fill:#696A6D;}
	.st2{font-family:'Europa-Bold';}
	.st3{font-size:35.3629px;}
	.st4{display:inline;}
	.st5{fill:#696A6D;}
	.st6{font-size:11.2448px;}
	.st7{fill:#FFFFFF;}
</style>
<g id="FONT" class="st0">
	<text transform="matrix(1 0 0 1 64.5908 33.1377)" class="st1 st2 st3">Jeugdhuis</text>
	<text transform="matrix(1 0 0 1 85.1159 53.6338)" class="st4"><tspan x="0" y="0" class="st5 st2 st6">- </tspan><tspan x="7.5" y="0" class="st5 st2 st6">PLACEHOLDER LOG</tspan><tspan x="115.69" y="0" class="st5 st2 st6">O </tspan><tspan x="126.57" y="0" class="st5 st2 st6">-</tspan></text>
</g>
<g id="Placeholder_logo_x27_s_Jeugdhuis">
	<g>
		<path class="st7" d="M55.72,22.44C51.77,12.6,41.48,2.14,30.21,2.14c-7.93,0-18.69,5.14-24.91,29.6
			c-1.82,7.18-1.17,12.84,1.93,16.83c2.96,3.81,8.01,5.82,14.59,5.82c5.41,0,11.59-1.39,17.52-3.92c1.02,1.41,2.27,3.85,3.05,6.47
			c0.15,0.5,0.58,0.87,1.1,0.95c0.07,0.01,0.13,0.01,0.19,0.01c0.45,0,0.88-0.23,1.13-0.61c2.82-4.29,4.66-8.72,5.5-13.19
			c1.22-0.94,2.35-1.91,3.38-2.89C58.09,37,58.82,30.16,55.72,22.44z M9.36,46.91c-0.79-1.02-1.38-2.18-1.78-3.5
			c1.5-2.53,3.33-3.96,4.21-3.71c0.47,0.13,0.94,0.82,1.25,1.84c0.75,2.45,0.53,6.1-0.38,8.13C11.42,49,10.29,48.1,9.36,46.91z
			 M13.07,37.72c-0.23,0-0.47-0.03-0.7-0.1c0,0,0,0,0,0l0,0c-1.39-0.38-2.2-1.82-1.82-3.21c0.31-1.13,1.35-1.91,2.51-1.91
			c0.23,0,0.47,0.03,0.7,0.09c1.39,0.39,2.2,1.83,1.82,3.21C15.27,36.93,14.24,37.72,13.07,37.72z M15.53,50.86
			c-0.33-2.69,1.72-7.62,4.64-10.85c1.57-1.73,3.11-2.6,4.13-2.32c0.75,0.21,1.29,1.05,1.61,1.72c1.39,2.95,1.45,8.39,0.21,11.98
			c-1.47,0.19-2.91,0.29-4.29,0.29C19.91,51.69,17.68,51.49,15.53,50.86z M25.97,35.06c-0.3,0-0.61-0.04-0.91-0.12
			c-0.87-0.24-1.59-0.81-2.04-1.59c-0.44-0.79-0.56-1.7-0.32-2.57c0.4-1.46,1.74-2.48,3.25-2.48c0.3,0,0.61,0.04,0.9,0.12
			c0.87,0.24,1.6,0.81,2.04,1.59c0.45,0.79,0.56,1.7,0.32,2.57C28.82,34.04,27.48,35.06,25.97,35.06z M35.27,43.87
			c-0.24,0-0.47-0.03-0.7-0.1c-1.39-0.38-2.2-1.83-1.82-3.21c0.31-1.13,1.35-1.91,2.51-1.91c0.23,0,0.47,0.03,0.7,0.1
			c0.67,0.19,1.23,0.62,1.58,1.23c0.34,0.61,0.43,1.31,0.24,1.98C37.47,43.08,36.43,43.87,35.27,43.87z M32.88,46.12
			c0.31-0.18,0.76-0.37,1.11-0.27c0.58,0.16,1.25,1.23,1.55,3.21c-2.16,0.78-4.34,1.4-6.46,1.84
			C30.05,48.82,31.57,46.86,32.88,46.12z M51.82,39.26c-1.07,1.02-2.26,2.03-3.56,3c-0.28,0.21-0.47,0.52-0.52,0.86
			c-0.58,3.46-1.83,6.92-3.74,10.31c-0.95-2.27-2.17-4.36-3.28-5.54c-0.26-0.28-0.62-0.43-0.99-0.43c-0.19,0-0.38,0.04-0.55,0.12
			c-0.53,0.24-1.05,0.46-1.58,0.68c-0.18-0.97-0.45-1.8-0.81-2.49c1.47-0.5,2.64-1.7,3.07-3.25c0.34-1.23,0.18-2.52-0.45-3.62
			c-0.63-1.11-1.65-1.91-2.88-2.25c-0.42-0.12-0.85-0.17-1.27-0.17c-2.14,0-4.03,1.44-4.6,3.5c-0.44,1.58-0.02,3.2,0.97,4.37
			c-0.9,0.55-1.75,1.37-2.51,2.34c0.15-3.02-0.27-6.1-1.26-8.2c-0.25-0.53-0.53-0.98-0.84-1.38c2.03-0.4,3.72-1.91,4.29-3.96
			c0.39-1.43,0.21-2.92-0.52-4.21c-0.73-1.29-1.92-2.22-3.34-2.61c-0.48-0.13-0.98-0.2-1.48-0.2c-2.48,0-4.68,1.67-5.34,4.06
			c-0.4,1.43-0.21,2.92,0.52,4.21c0.3,0.53,0.68,0.99,1.12,1.39c-1.19,0.45-2.44,1.38-3.7,2.77c-1.12,1.24-2.17,2.76-3.03,4.37
			c-0.09-0.72-0.23-1.41-0.42-2.02c-0.15-0.5-0.33-0.92-0.52-1.28c1.47-0.5,2.65-1.7,3.07-3.25c0.7-2.54-0.79-5.17-3.33-5.87
			c-0.42-0.12-0.85-0.17-1.28-0.17c-2.14,0-4.03,1.44-4.6,3.5c-0.44,1.58-0.02,3.2,0.96,4.36c-0.85,0.52-1.66,1.3-2.38,2.2
			c-0.17-2.33,0.11-5,0.87-7.99C12.44,14.63,20.35,4.84,30.21,4.84c9.72,0,19.33,9.46,23.01,18.61
			C55.88,30.09,55.38,35.85,51.82,39.26z"/>
		<g>
			<path class="st7" d="M74.01,11.9h4.24v16.98c0,5.2-3.22,8.21-8.45,8.21c-4.95,0-7.25-4.14-7.25-4.14l3.11-2.62
				c0,0,1.56,2.72,4.14,2.72c3.25,0,4.21-2.12,4.21-4.03C74.01,20.85,74.01,11.9,74.01,11.9z"/>
			<path class="st7" d="M99.44,28.21c0,0.32,0,0.96-0.04,1.59H86.88c0.32,1.49,2.05,3.4,4.7,3.4c2.94,0,4.6-1.7,4.6-1.7l2.12,3.18
				c0,0-2.65,2.41-6.72,2.41c-5.09,0-9.02-3.89-9.02-8.81s3.57-8.81,8.42-8.81C95.58,19.47,99.44,23.05,99.44,28.21z M95.19,26.72
				c-0.07-1.45-1.41-3.4-4.21-3.4c-2.72,0-3.96,1.91-4.1,3.4H95.19z"/>
			<path class="st7" d="M103.25,30.76V19.9h4.24v9.69c0,2.48,1.17,3.54,3.32,3.54c2.19,0,3.32-2.05,3.32-2.05V19.9h4.24v16.77h-3.96
				v-2.44c0,0-1.59,2.86-5.02,2.86C106.19,37.09,103.25,34.79,103.25,30.76z"/>
			<path class="st7" d="M130.38,37.09c-4.35,0-8.17-3.64-8.17-8.81s3.82-8.81,8.17-8.81c3.5,0,5.06,2.62,5.06,2.62V19.9h3.93V36.8
				c0,5.84-4.31,8.42-9.02,8.42c-4.81,0-7.96-3.18-7.96-3.18l2.41-3.25c0,0,2.33,2.48,5.55,2.48c3.29,0,4.78-1.8,4.78-4.32v-2.02
				C134.55,35.64,133.03,37.09,130.38,37.09z M135.12,25.77c0,0-1.2-2.33-4-2.33c-2.86,0-4.6,2.09-4.6,4.85s1.73,4.85,4.6,4.85
				c2.76,0,4-2.33,4-2.33V25.77z"/>
			<path class="st7" d="M160.33,36.66h-3.93v-2.19c0,0-1.45,2.62-5.06,2.62c-4.35,0-8.17-3.64-8.17-8.81s3.82-8.81,8.17-8.81
				c3.18,0,4.74,2.19,4.74,2.19V9.92h4.24V36.66z M156.09,25.77c0,0-1.2-2.33-4-2.33c-2.86,0-4.6,2.09-4.6,4.85s1.73,4.85,4.6,4.85
				c2.79,0,4-2.33,4-2.33V25.77z"/>
			<path class="st7" d="M181.41,25.8v10.86h-4.24v-9.8c0-2.41-1.49-3.43-3.33-3.43c-2.19,0-3.33,2.19-3.33,2.19v11.04h-4.24V9.92
				h4.24v11.99c0,0,1.49-2.44,4.74-2.44S181.41,21.77,181.41,25.8z"/>
			<path class="st7" d="M186.35,30.76V19.9h4.24v9.69c0,2.48,1.17,3.54,3.33,3.54c2.19,0,3.32-2.05,3.32-2.05V19.9h4.25v16.77h-3.96
				v-2.44c0,0-1.59,2.86-5.02,2.86C189.29,37.09,186.35,34.79,186.35,30.76z"/>
			<path class="st7" d="M209.23,11.69c1.56,0,2.79,1.24,2.79,2.79c0,1.56-1.24,2.79-2.79,2.79c-1.56,0-2.79-1.24-2.79-2.79
				C206.44,12.93,207.68,11.69,209.23,11.69z M207.11,19.9h4.25v16.77h-4.25V19.9z"/>
			<path class="st7" d="M218.29,30.97c0,0,2.23,2.4,5.06,2.4c1.73,0,3.18-0.5,3.18-1.52c0-1.1-0.78-1.31-3.32-1.84
				c-3.33-0.71-6.23-2.12-6.23-5.31c0-2.62,2.62-5.23,7.22-5.23c3.78,0,6.3,2.05,6.3,2.05l-2.12,3.11c0,0-1.91-1.45-4.17-1.45
				c-1.59,0-3.04,0.57-3.04,1.59s1.13,1.27,3.96,1.87c3.33,0.71,5.7,1.8,5.7,5.27c0,2.87-3.04,5.16-7.32,5.16
				c-4.92,0-7.57-3.04-7.57-3.04L218.29,30.97z"/>
		</g>
		<g>
			<path class="st7" d="M83.34,53.74h3v1.28h-3V53.74z"/>
			<path class="st7" d="M91.3,49.29h2.68c1.56,0,2.61,1.08,2.61,2.52s-1.05,2.52-2.61,2.52h-1.33v2.83H91.3V49.29z M95.21,51.81
				c0-0.74-0.48-1.24-1.41-1.24h-1.16v2.47h1.16C94.73,53.04,95.21,52.55,95.21,51.81z"/>
			<path class="st7" d="M98.11,49.29h1.35v6.59h3.35v1.28h-4.7V49.29z"/>
			<path class="st7" d="M106.48,49.29h1.37l3.06,7.87h-1.36l-0.72-1.87h-3.33l-0.72,1.87h-1.36L106.48,49.29z M105.99,54.06h2.36
				l-1.18-3.07L105.99,54.06z"/>
			<path class="st7" d="M117.84,55.07l0.9,0.89c0,0-1.03,1.34-3.03,1.34c-2.27,0-3.99-1.74-3.99-4.07c0-2.33,1.72-4.07,3.99-4.07
				c1.89,0,2.91,1.24,2.91,1.24l-0.91,0.89c0,0-0.71-0.87-2-0.87c-1.55,0-2.62,1.29-2.62,2.81s1.07,2.81,2.62,2.81
				C117.1,56.03,117.84,55.07,117.84,55.07z"/>
			<path class="st7" d="M121.57,52.48h3.15v1.28h-3.15v2.11h3.49v1.28h-4.84v-7.87h4.77v1.28h-3.42V52.48z"/>
			<path class="st7" d="M131.52,49.29h1.35v7.87h-1.35v-3.38h-3.36v3.38h-1.35v-7.87h1.35v3.21h3.36V49.29z"/>
			<path class="st7" d="M142.5,53.22c0,2.33-1.69,4.07-3.98,4.07s-3.98-1.74-3.98-4.07c0-2.33,1.69-4.07,3.98-4.07
				S142.5,50.9,142.5,53.22z M141.13,53.22c0-1.52-1.02-2.79-2.61-2.79s-2.61,1.27-2.61,2.79s1.02,2.79,2.61,2.79
				S141.13,54.74,141.13,53.22z"/>
			<path class="st7" d="M144.16,49.29h1.35v6.59h3.35v1.28h-4.7V49.29z"/>
			<path class="st7" d="M156.67,53.22c0,2.27-1.6,3.94-3.89,3.94h-2.54v-7.87h2.54C155.07,49.29,156.67,50.95,156.67,53.22z
				 M155.29,53.22c0-1.44-0.97-2.65-2.5-2.65h-1.21v5.31h1.21C154.33,55.88,155.29,54.65,155.29,53.22z"/>
			<path class="st7" d="M159.68,52.48h3.15v1.28h-3.15v2.11h3.49v1.28h-4.84v-7.87h4.77v1.28h-3.42V52.48z"/>
			<path class="st7" d="M164.92,49.29h2.59c1.56,0,2.61,1.01,2.61,2.45c0,1.18-0.63,2.08-1.75,2.36l1.97,3.06h-1.57l-1.87-2.97
				h-0.62v2.97h-1.35V49.29z M168.74,51.74c0-0.78-0.54-1.17-1.41-1.17h-1.07v2.34h1.07C168.2,52.91,168.74,52.51,168.74,51.74z"/>
			<path class="st7" d="M175.68,49.29h1.35v6.59h3.35v1.28h-4.7V49.29z"/>
			<path class="st7" d="M189.27,53.22c0,2.33-1.69,4.07-3.98,4.07s-3.98-1.74-3.98-4.07c0-2.33,1.69-4.07,3.98-4.07
				S189.27,50.9,189.27,53.22z M187.89,53.22c0-1.52-1.02-2.79-2.61-2.79s-2.61,1.27-2.61,2.79s1.02,2.79,2.61,2.79
				S187.89,54.74,187.89,53.22z"/>
			<path class="st7" d="M196.2,55.65v-1.66h-1.79v-1.26h3.12v3.58c0,0-1,0.99-2.91,0.99c-2.3,0-4.14-1.74-4.14-4.07
				c0-2.33,1.78-4.07,4.08-4.07c1.93,0,2.91,1.18,2.91,1.18l-0.92,0.9c0,0-0.65-0.82-1.99-0.82c-1.59,0-2.71,1.29-2.71,2.81
				s1.18,2.81,2.77,2.81C195.74,56.03,196.2,55.65,196.2,55.65z"/>
			<path class="st7" d="M206.91,53.22c0,2.33-1.69,4.07-3.98,4.07s-3.98-1.74-3.98-4.07c0-2.33,1.69-4.07,3.98-4.07
				S206.91,50.9,206.91,53.22z M205.54,53.22c0-1.52-1.02-2.79-2.61-2.79s-2.61,1.27-2.61,2.79s1.02,2.79,2.61,2.79
				S205.54,54.74,205.54,53.22z"/>
			<path class="st7" d="M209.82,53.74h3v1.28h-3V53.74z"/>
		</g>
	</g>
</g>
</svg>
