<svg id="Placeholder_logo_s_Jeugdhuis" data-name="Placeholder logo&apos;s Jeugdhuis" xmlns="http://www.w3.org/2000/svg" viewBox="0 0 226.52 55.76"><defs><style>.cls-1{fill:#231f20;}</style></defs><path class="cls-1" d="M55.72,22.44C51.77,12.6,41.48,2.14,30.21,2.14c-7.94,0-18.7,5.13-24.91,29.6C3.48,38.92,4.13,44.58,7.23,48.57c3,3.81,8,5.82,14.59,5.82a46,46,0,0,0,17.52-3.92,23.3,23.3,0,0,1,3,6.47,1.36,1.36,0,0,0,1.1,1h.2a1.36,1.36,0,0,0,1.13-.61,36.21,36.21,0,0,0,5.5-13.19,40.57,40.57,0,0,0,3.38-2.89C58.09,37,58.82,30.16,55.72,22.44ZM9.36,46.91a10.45,10.45,0,0,1-1.77-3.49c1.5-2.54,3.33-4,4.2-3.71.47.13.94.81,1.25,1.84a13.39,13.39,0,0,1-.38,8.13A10.6,10.6,0,0,1,9.36,46.91Zm3.71-9.19a2.82,2.82,0,0,1-.7-.1h0a2.61,2.61,0,0,1,.7-5.12,2.8,2.8,0,0,1,.7.09,2.61,2.61,0,0,1-.7,5.13Zm2.46,13.14c-.33-2.69,1.71-7.62,4.64-10.84,1.57-1.74,3.11-2.6,4.13-2.32a3.06,3.06,0,0,1,1.61,1.72c1.39,2.95,1.44,8.39.2,12a33.61,33.61,0,0,1-4.29.29A22.7,22.7,0,0,1,15.53,50.86ZM26,35.06a3.06,3.06,0,0,1-.9-.13,3.38,3.38,0,0,1-2.36-4.16A3.4,3.4,0,0,1,26,28.3a3.48,3.48,0,0,1,.9.12,3.39,3.39,0,0,1,2,1.59,3.35,3.35,0,0,1,.32,2.57A3.4,3.4,0,0,1,26,35.06Zm9.3,8.81a2.75,2.75,0,0,1-.7-.1,2.61,2.61,0,0,1,.69-5.13,2.75,2.75,0,0,1,.7.1,2.61,2.61,0,0,1-.69,5.13Zm-2.39,2.25A1.6,1.6,0,0,1,34,45.85c.58.16,1.25,1.23,1.55,3.21a47.64,47.64,0,0,1-6.46,1.84A11.39,11.39,0,0,1,32.88,46.12Zm18.94-6.86a38.59,38.59,0,0,1-3.55,3,1.38,1.38,0,0,0-.53.86A31.68,31.68,0,0,1,44,53.43a19.78,19.78,0,0,0-3.28-5.54,1.33,1.33,0,0,0-1-.42,1.36,1.36,0,0,0-.56.11c-.52.24-1,.46-1.58.68a8.7,8.7,0,0,0-.81-2.48,4.78,4.78,0,0,0-.25-9.13,5.06,5.06,0,0,0-1.28-.17,4.77,4.77,0,0,0-3.63,7.87,9.81,9.81,0,0,0-2.51,2.34,18.27,18.27,0,0,0-1.26-8.2A6.94,6.94,0,0,0,27,37.12a5.55,5.55,0,0,0,.43-10.79,5.79,5.79,0,0,0-1.48-.2,5.56,5.56,0,0,0-4.83,8.28,5.38,5.38,0,0,0,1.12,1.38,10.06,10.06,0,0,0-3.7,2.77,22.27,22.27,0,0,0-3,4.37,11.81,11.81,0,0,0-.42-2,7.08,7.08,0,0,0-.52-1.28,4.77,4.77,0,0,0-.25-9.12,4.53,4.53,0,0,0-1.27-.18,4.77,4.77,0,0,0-3.64,7.86,10,10,0,0,0-2.38,2.2,25.3,25.3,0,0,1,.87-8C12.44,14.63,20.35,4.84,30.21,4.84s19.33,9.46,23,18.61C55.88,30.09,55.38,35.85,51.82,39.26Z" transform="translate(-4.29 -2.14)"/><path class="cls-1" d="M74,11.9h4.24v17c0,5.2-3.21,8.21-8.45,8.21A8.67,8.67,0,0,1,62.55,33l3.11-2.62s1.56,2.73,4.14,2.73c3.25,0,4.21-2.13,4.21-4Z" transform="translate(-4.29 -2.14)"/><path class="cls-1" d="M99.44,28.21c0,.32,0,.95,0,1.59H86.88a4.78,4.78,0,0,0,4.7,3.4,6.74,6.74,0,0,0,4.6-1.7l2.12,3.18a10.72,10.72,0,0,1-6.72,2.41,8.81,8.81,0,0,1-9-8.81c0-4.92,3.57-8.81,8.41-8.81A8.44,8.44,0,0,1,99.44,28.21Zm-4.25-1.49c-.07-1.45-1.41-3.39-4.21-3.39a3.86,3.86,0,0,0-4.1,3.39Z" transform="translate(-4.29 -2.14)"/><path class="cls-1" d="M103.25,30.76V19.9h4.25v9.69c0,2.48,1.16,3.54,3.32,3.54a4.15,4.15,0,0,0,3.33-2.06V19.9h4.24V36.66h-4V34.22a6,6,0,0,1-11.18-3.46Z" transform="translate(-4.29 -2.14)"/><path class="cls-1" d="M130.38,37.09c-4.35,0-8.17-3.65-8.17-8.81s3.82-8.81,8.17-8.81a6,6,0,0,1,5.05,2.62V19.9h3.93V36.8c0,5.84-4.31,8.42-9,8.42a12.08,12.08,0,0,1-8-3.18l2.41-3.25a8.47,8.47,0,0,0,5.55,2.47c3.29,0,4.78-1.8,4.78-4.31v-2A6,6,0,0,1,130.38,37.09Zm4.74-11.32a4.66,4.66,0,0,0-4-2.34c-2.87,0-4.6,2.09-4.6,4.85s1.73,4.85,4.6,4.85a4.72,4.72,0,0,0,4-2.34Z" transform="translate(-4.29 -2.14)"/><path class="cls-1" d="M160.33,36.66h-3.92V34.47a5.82,5.82,0,0,1-5.06,2.62c-4.35,0-8.17-3.65-8.17-8.81s3.82-8.81,8.17-8.81a6,6,0,0,1,4.74,2.2V9.92h4.24Zm-4.24-10.89a4.66,4.66,0,0,0-4-2.34c-2.86,0-4.6,2.09-4.6,4.85s1.74,4.85,4.6,4.85a4.66,4.66,0,0,0,4-2.34Z" transform="translate(-4.29 -2.14)"/><path class="cls-1" d="M181.41,25.8V36.66h-4.25V26.87a3.1,3.1,0,0,0-3.32-3.44,4.14,4.14,0,0,0-3.33,2.2v11h-4.24V9.92h4.24v12a5.7,5.7,0,0,1,4.74-2.44A6,6,0,0,1,181.41,25.8Z" transform="translate(-4.29 -2.14)"/><path class="cls-1" d="M186.35,30.76V19.9h4.25v9.69c0,2.48,1.17,3.54,3.32,3.54a4.13,4.13,0,0,0,3.33-2.06V19.9h4.24V36.66h-4V34.22a6,6,0,0,1-11.18-3.46Z" transform="translate(-4.29 -2.14)"/><path class="cls-1" d="M209.23,11.69a2.8,2.8,0,1,1-2.79,2.8A2.78,2.78,0,0,1,209.23,11.69Zm-2.12,8.21h4.25V36.66h-4.25Z" transform="translate(-4.29 -2.14)"/><path class="cls-1" d="M218.29,31a7.9,7.9,0,0,0,5.06,2.4c1.73,0,3.18-.49,3.18-1.52s-.78-1.31-3.33-1.84c-3.32-.7-6.22-2.12-6.22-5.3,0-2.62,2.62-5.24,7.21-5.24a10.67,10.67,0,0,1,6.3,2.06l-2.12,3.11a7.79,7.79,0,0,0-4.18-1.45c-1.59,0-3,.56-3,1.59s1.13,1.27,4,1.87c3.33.71,5.7,1.81,5.7,5.27,0,2.87-3,5.17-7.32,5.17a10.45,10.45,0,0,1-7.57-3Z" transform="translate(-4.29 -2.14)"/><path class="cls-1" d="M83.34,53.74h3V55h-3Z" transform="translate(-4.29 -2.14)"/><path class="cls-1" d="M91.3,49.29H94a2.52,2.52,0,1,1,0,5H92.65v2.83H91.3Zm3.91,2.52c0-.75-.48-1.24-1.4-1.24H92.65V53h1.16C94.73,53,95.21,52.55,95.21,51.81Z" transform="translate(-4.29 -2.14)"/><path class="cls-1" d="M98.11,49.29h1.35v6.59h3.36v1.28H98.11Z" transform="translate(-4.29 -2.14)"/><path class="cls-1" d="M106.48,49.29h1.37l3.06,7.87h-1.36l-.72-1.87H105.5l-.72,1.87h-1.36ZM106,54.06h2.36L107.17,51Z" transform="translate(-4.29 -2.14)"/><path class="cls-1" d="M117.84,55.07l.9.89a4,4,0,0,1-3,1.33,4.07,4.07,0,1,1,2.92-6.9l-.91.89a2.71,2.71,0,0,0-2-.87,2.82,2.82,0,0,0,0,5.62A2.81,2.81,0,0,0,117.84,55.07Z" transform="translate(-4.29 -2.14)"/><path class="cls-1" d="M121.57,52.48h3.15v1.28h-3.15v2.12h3.49v1.28h-4.84V49.29H125v1.28h-3.42Z" transform="translate(-4.29 -2.14)"/><path class="cls-1" d="M131.52,49.29h1.35v7.87h-1.35V53.77h-3.36v3.39h-1.35V49.29h1.35v3.2h3.36Z" transform="translate(-4.29 -2.14)"/><path class="cls-1" d="M142.5,53.22a4,4,0,1,1-4-4.07A3.92,3.92,0,0,1,142.5,53.22Zm-1.37,0A2.62,2.62,0,1,0,138.52,56,2.64,2.64,0,0,0,141.13,53.22Z" transform="translate(-4.29 -2.14)"/><path class="cls-1" d="M144.16,49.29h1.35v6.59h3.35v1.28h-4.7Z" transform="translate(-4.29 -2.14)"/><path class="cls-1" d="M156.67,53.22a3.77,3.77,0,0,1-3.89,3.94h-2.55V49.29h2.55A3.77,3.77,0,0,1,156.67,53.22Zm-1.38,0a2.49,2.49,0,0,0-2.49-2.65h-1.22v5.31h1.22A2.51,2.51,0,0,0,155.29,53.22Z" transform="translate(-4.29 -2.14)"/><path class="cls-1" d="M159.68,52.48h3.15v1.28h-3.15v2.12h3.49v1.28h-4.84V49.29h4.77v1.28h-3.42Z" transform="translate(-4.29 -2.14)"/><path class="cls-1" d="M164.92,49.29h2.59a2.4,2.4,0,0,1,2.6,2.45,2.26,2.26,0,0,1-1.75,2.36l2,3.06h-1.58l-1.86-3h-.62v3h-1.35Zm3.82,2.45c0-.78-.54-1.17-1.4-1.17h-1.07v2.34h1.07C168.2,52.91,168.74,52.51,168.74,51.74Z" transform="translate(-4.29 -2.14)"/><path class="cls-1" d="M175.68,49.29H177v6.59h3.35v1.28h-4.7Z" transform="translate(-4.29 -2.14)"/><path class="cls-1" d="M189.27,53.22a4,4,0,1,1-4-4.07A3.92,3.92,0,0,1,189.27,53.22Zm-1.38,0A2.62,2.62,0,1,0,185.28,56,2.63,2.63,0,0,0,187.89,53.22Z" transform="translate(-4.29 -2.14)"/><path class="cls-1" d="M196.2,55.65V54h-1.79V52.73h3.12V56.3a4.29,4.29,0,0,1-2.91,1,4.07,4.07,0,1,1-.06-8.14,3.9,3.9,0,0,1,2.91,1.18l-.92.9a2.6,2.6,0,0,0-2-.82,2.73,2.73,0,0,0-2.71,2.81A2.77,2.77,0,0,0,194.62,56,2.59,2.59,0,0,0,196.2,55.65Z" transform="translate(-4.29 -2.14)"/><path class="cls-1" d="M206.91,53.22a4,4,0,1,1-4-4.07A3.92,3.92,0,0,1,206.91,53.22Zm-1.37,0A2.62,2.62,0,1,0,202.93,56,2.64,2.64,0,0,0,205.54,53.22Z" transform="translate(-4.29 -2.14)"/><path class="cls-1" d="M209.82,53.74h3V55h-3Z" transform="translate(-4.29 -2.14)"/></svg>